<?xml version="1.0" encoding="utf-8"?>
<!-- Generator: Adobe Illustrator 19.0.0, SVG Export Plug-In . SVG Version: 6.00 Build 0)  -->
<svg version="1.1" id="Layer_1" xmlns="http://www.w3.org/2000/svg" xmlns:xlink="http://www.w3.org/1999/xlink" x="0px" y="0px"
	 viewBox="0 0 500 116.7" style="enable-background:new 0 0 500 116.7;" xml:space="preserve">
<style type="text/css">
	.st0{fill:#FFFFFF;}
</style>
<g id="XMLID_29_">
	<path id="XMLID_30_" class="st0" d="M213.1,22.6l5,0.1c1.6,0,3.6-0.2,6-0.5c1.1-0.2,1.7-0.2,1.9-0.2c0.3,0,0.4,0.1,0.4,0.4
		c0,0.3-0.4,0.6-1.3,0.9l-1.8,0.4c-3.5,0.9-7.6,1.3-12.2,1.2c-3.9,4.4-8.2,10-12.9,17c-3.5,5.2-6.2,8.7-8.1,10.7
		c-3.8,4-7.6,6-11.3,6c-1.4,0-2.4-0.4-3.2-1.3s-1.2-2-1.2-3.3c0-2.4,1.1-4.5,3.3-6.2c2.2-1.7,3.8-2.6,4.7-2.6c0.4,0,0.6,0.2,0.6,0.5
		c0,0.3-0.6,1-1.8,1.9c-1.6,1.2-2.7,2.2-3.4,3c-1.2,1.4-1.8,2.9-1.8,4.5c0,1.6,0.6,2.4,1.9,2.4c2.8,0,6.5-2.7,11.1-8.1
		c1-1.2,3.9-5,8.6-11.5c3.5-4.8,7.3-9.1,11.3-12.8l-7.6-0.2c-3.6,0-7,0.8-10.1,2.5c-2,1.1-4,2.6-6,4.5c-1.7,1.6-2.6,2.5-2.8,2.5
		c-0.7,0-1-0.2-1-0.7c0-0.1,0.5-0.8,1.6-2c1.3-1.4,2.3-2.7,2.9-3.7c1-1.7,1.6-3.1,1.6-4.4c0-0.1,0-0.3,0-0.6c0-0.3,0-0.5,0-0.6
		c0-0.5,0.2-0.8,0.7-0.8c1.1,0,1.6,0.3,1.6,0.9c0,2.2-1.3,4.7-4,7.6c2.9-2.6,5.6-4.5,8.3-5.7c2.9-1.2,6.2-1.8,9.9-1.8
		c1.8,0,4.2,0.1,7.1,0.4c0.6-0.7,1.1-1,1.5-1C212.9,21.5,213.1,21.9,213.1,22.6z"/>
	<path id="XMLID_32_" class="st0" d="M211.5,51.2c6.4-5.7,10.6-8.5,12.8-8.5c0.9,0,1.4,0.5,1.4,1.5c0,1.1-1.5,3.1-4.5,6.1
		c-3,3-4.5,4.8-4.5,5.3c0,0.5,0.5,0.7,1.5,0.7c0.2,0,0.4,0.1,0.4,0.4c0,0.3-0.4,0.5-1.3,0.5c-1.5,0-2.3-0.6-2.3-1.9
		c0-1.5,1.2-3.4,3.5-5.8c2.9-3,4.4-4.6,4.7-5c0-0.2-0.1-0.3-0.3-0.3c-1,0-3.4,1.7-7.4,5c-3,2.5-5.3,4.6-7.1,6.4
		c-0.7,0.7-1.3,1.2-1.8,1.6c-0.3,0-0.5-0.2-0.8-0.5c-0.2-0.3-0.4-0.6-0.4-0.9c0-0.4,1.2-2.1,3.6-5.2l4.2-5.3
		c-1.7,1.6-3.8,3.4-6.4,5.4l-5.1,3.9c-2.5,1.7-4.5,2.6-5.9,2.6c-0.2,0-0.3-0.1-0.3-0.3c0-0.3,0.2-0.5,0.5-0.6
		c1.5-0.4,2.7-0.9,3.8-1.6c2.1-1.3,5.1-3.6,9.3-7.1l5.3-4.5c1.1-0.9,4.2-4.4,9.4-10.4c4.6-5.4,7.1-8.1,7.6-8.1
		c0.6,0,0.9,0.4,0.9,1.2c0,0.5-1.8,2.9-5.3,7.1L211.5,51.2z"/>
	<path id="XMLID_34_" class="st0" d="M227.8,51.7c-4.7,3.7-7.9,5.5-9.7,5.5c-0.2,0-0.3-0.1-0.3-0.4c0-0.3,0.2-0.5,0.6-0.6
		c1.7-0.3,3.9-1.5,6.9-3.8l3.4-2.7l5.5-4.4c2.5-1.7,4.6-2.6,6.4-2.6c1.3,0,2.1,0.7,2.2,2c0.7-0.7,1.2-1,1.4-1c0.6,0,0.9,0.2,0.9,0.7
		c0,0.6-1.3,2.5-4,5.7c-2.7,3.2-4,5-4,5.5c0,0.4,0.3,0.6,0.9,0.6c0.6,0,0.9,0.2,0.9,0.5c0,0.4-0.6,0.5-1.8,0.5
		c-1.2,0-1.8-0.5-1.8-1.6c0-0.8,0.5-2,1.4-3.5l-3.3,2.8c-1.6,1.2-2.9,1.8-3.8,1.8c-1.5,0-2.3-0.8-2.3-2.3
		C227.2,53.7,227.4,52.7,227.8,51.7z M240.9,44c-1,0-3.2,1.6-6.4,4.7c-3.3,3.1-4.9,5.2-4.9,6.2c0,0.5,0.2,0.7,0.7,0.7
		c1,0,3.2-1.5,6.4-4.6s4.9-5.1,4.9-6.1C241.6,44.2,241.4,44,240.9,44z"/>
	<path id="XMLID_37_" class="st0" d="M259.3,40l-9.5,0.4c-0.5,0-0.8-0.1-0.8-0.4c0-0.2,0.4-0.4,1.3-0.5c1.2-0.2,2.9-0.4,5.1-0.5
		c2.4-0.1,4.2-0.3,5.1-0.4l3.8-4.5c2-2.4,3.2-3.6,3.7-3.6c0.5,0,0.8,0.3,0.8,1c0,0.7-1.6,3.1-4.8,7.1c1.8-0.1,3.4-0.2,4.6-0.2
		c0.8,0,1.2,0.2,1.2,0.5c0,0.4-1,0.6-2.9,0.7l-4,0.1L257,47c-3.7,4.8-5.6,7.7-5.6,8.6c0,0.4,0.3,0.7,0.9,0.7c0.6,0,0.9,0.2,0.9,0.4
		c0,0.3-0.4,0.5-1.2,0.5c-1.6,0-2.3-0.6-2.3-1.9c0-1,0.5-2.4,1.5-4.3l2.3-3.8l-7.8,6.1c-3.3,2.6-5.8,3.8-7.5,3.8
		c-0.2,0-0.3-0.1-0.3-0.4c0-0.3,0.2-0.5,0.5-0.6c0.6-0.1,1.5-0.4,2.7-0.9c1.2-0.6,3.8-2.5,7.9-5.7c3-2.3,4.9-3.9,5.7-4.6
		C256.1,43.9,257.6,42.2,259.3,40z"/>
	<path id="XMLID_39_" class="st0" d="M284.5,23.8c-0.9,0-1.4-0.3-1.4-0.9c0-0.7,0.5-1.5,1.5-2.3c0.9-0.8,1.8-1.1,2.5-1.1
		c0.8,0,1.2,0.5,1.2,1.4c0,1.3-0.9,2.6-2.7,4c-1.7,1.3-3.3,2-4.6,2c-0.3,0-0.4-0.1-0.4-0.4c0-0.3,0.3-0.5,0.8-0.7
		C282.6,25.4,283.7,24.8,284.5,23.8z"/>
	<path id="XMLID_41_" class="st0" d="M271.3,52.7c-3.7,3-6.4,4.5-8.3,4.5c-0.2,0-0.3-0.1-0.3-0.3c0-0.3,0.2-0.5,0.5-0.6
		c0.7-0.2,1.7-0.5,3-1.1c1.3-0.7,4.5-3.2,9.7-7.5c4.9-4.1,7.4-6.1,7.5-6.1c0.4,0,0.8,0.2,1.2,0.5c0.4,0.4,0.6,0.7,0.6,1.1
		c0,1.3-1,3.5-3,6.8c-1.7,2.8-3.3,4.9-4.6,6.3c0.8,0,1.2,0.1,1.2,0.4c0,0.4-0.4,0.5-1.1,0.5c-0.2,0-0.5,0-0.9-0.1
		c-0.4-0.1-0.7-0.1-0.9-0.1c-0.1,0-0.4,0-0.6,0.1s-0.5,0.1-0.6,0.1C272.4,57.3,271.3,55.8,271.3,52.7z M274.7,55.9l-0.7-2.1
		c-0.4-1-0.8-1.5-1.1-1.5c-0.4,0-0.6,0.3-0.6,0.9s0.2,1.2,0.5,1.9c0.4,0.7,0.9,1.1,1.4,1.1C274.4,56.1,274.6,56,274.7,55.9z
		 M275.5,55.1c1.2-1,2.6-2.8,4.1-5.3c1.4-2.3,2.3-4.4,2.9-6.2l-9.4,7.7c0.7,0.1,1.2,0.6,1.6,1.5L275.5,55.1z"/>
	<path id="XMLID_45_" class="st0" d="M301.5,51.7c-4.7,3.7-7.9,5.5-9.7,5.5c-0.2,0-0.3-0.1-0.3-0.4c0-0.3,0.2-0.5,0.6-0.6
		c1.7-0.3,3.9-1.5,6.9-3.8l3.4-2.7l5.5-4.4c2.5-1.7,4.6-2.6,6.4-2.6c1.3,0,2.1,0.7,2.2,2c0.7-0.7,1.2-1,1.4-1c0.6,0,0.9,0.2,0.9,0.7
		c0,0.6-1.3,2.5-4,5.7c-2.7,3.2-4,5-4,5.5c0,0.4,0.3,0.6,0.9,0.6c0.6,0,0.9,0.2,0.9,0.5c0,0.4-0.6,0.5-1.8,0.5
		c-1.2,0-1.8-0.5-1.8-1.6c0-0.8,0.5-2,1.4-3.5L307,55c-1.6,1.2-2.9,1.8-3.8,1.8c-1.5,0-2.3-0.8-2.3-2.3
		C300.9,53.7,301.1,52.7,301.5,51.7z M314.6,44c-1,0-3.2,1.6-6.4,4.7s-4.9,5.2-4.9,6.2c0,0.5,0.2,0.7,0.7,0.7c1,0,3.2-1.5,6.4-4.6
		c3.3-3,4.9-5.1,4.9-6.1C315.4,44.2,315.1,44,314.6,44z"/>
	<path id="XMLID_48_" class="st0" d="M326.2,48.7l-6.5,4.9c-3.5,2.4-6.1,3.6-7.7,3.6c-0.2,0-0.3-0.1-0.3-0.3c0-0.3,0.3-0.5,1-0.6
		c0.7-0.1,1.6-0.4,2.6-1c1.2-0.6,3.1-2,5.9-4c2-1.5,4.2-3.1,6.5-4.9c2.6-3.9,6.2-8.2,10.8-12.8c5.1-5.1,8.5-7.7,10.3-7.7
		c0.8,0,1.2,0.4,1.2,1.3c0,2.2-2.6,5.8-7.8,10.6c-3.3,3.1-6.9,6-10.7,8.9c-0.9,0.7-2,2.1-3.3,4.3c-1.4,2.2-2.1,3.8-2.1,4.7
		c0,0.4,0.5,0.7,1.5,0.7c0.2,0,0.3,0.1,0.3,0.4c0,0.3-0.5,0.5-1.4,0.5c-1.5,0-2.2-0.7-2.2-2.2C324.2,53.7,324.9,51.5,326.2,48.7z
		 M348.5,26.8c-0.7,0-3.4,2.7-8.1,8c-4.5,5.1-7.4,8.7-8.6,10.6C343.2,36.1,349,30,349,27.2C349,26.9,348.8,26.8,348.5,26.8z"/>
	<path id="XMLID_51_" class="st0" d="M341.6,48.7l-6.5,4.9c-3.5,2.4-6.1,3.6-7.7,3.6c-0.2,0-0.3-0.1-0.3-0.3c0-0.3,0.3-0.5,1-0.6
		c0.7-0.1,1.6-0.4,2.6-1c1.2-0.6,3.1-2,5.9-4c2-1.5,4.2-3.1,6.5-4.9c2.6-3.9,6.2-8.2,10.8-12.8c5.1-5.1,8.5-7.7,10.3-7.7
		c0.8,0,1.2,0.4,1.2,1.3c0,2.2-2.6,5.8-7.8,10.6c-3.3,3.1-6.9,6-10.7,8.9c-0.9,0.7-2,2.1-3.3,4.3c-1.4,2.2-2.1,3.8-2.1,4.7
		c0,0.4,0.5,0.7,1.5,0.7c0.2,0,0.3,0.1,0.3,0.4c0,0.3-0.5,0.5-1.4,0.5c-1.5,0-2.2-0.7-2.2-2.2C339.5,53.7,340.2,51.5,341.6,48.7z
		 M363.8,26.8c-0.7,0-3.4,2.7-8.1,8c-4.5,5.1-7.4,8.7-8.6,10.6c11.5-9.3,17.2-15.4,17.2-18.2C364.3,26.9,364.1,26.8,363.8,26.8z"/>
	<path id="XMLID_54_" class="st0" d="M51.8,95.9c3.9,1.5,6.6,2.3,8.1,2.3c0.2,0,0.4,0,0.7-0.1c0.3-0.1,0.5-0.1,0.6-0.1
		c0.1,0,0.2,0.1,0.2,0.2c0,0.4-0.3,0.7-1,1c-0.6,0.2-1.1,0.4-1.5,0.4c-1.5,0-4.3-0.8-8.2-2.3c-2.4,2.2-4.9,3.3-7.4,3.3
		c-1,0-1.9-0.2-2.6-0.5c-0.9-0.5-1.3-1.2-1.3-2.1c0-1.1,0.7-2.1,2.1-2.8c1.2-0.6,2.4-0.9,3.6-0.9c1.5,0,3.2,0.4,5,1.1l8.9-9.5
		c2.5-2.6,4.2-4.5,5.4-5.4c2.7-2.3,4.8-3.5,6.5-3.5c1.4,0,2.2,0.6,2.4,1.8c0.6-0.2,1-0.3,1.1-0.3c0.1,0,0.2,0.1,0.2,0.3
		c0,0.2-0.2,0.3-0.5,0.5l-0.8,0.3c-0.1,2.1-1.4,4.6-3.8,7.4C67,89.5,65.1,91,63.8,91c-0.9,0-1.4-0.4-1.4-1.3c0-1.2,0.9-3,2.7-5.2
		c1.8-2.2,4.1-4.1,6.9-5.5c0-0.2,0-0.3,0-0.4c0-0.7-0.3-1-0.9-1c-1.1,0-2.9,1.2-5.4,3.5c-0.9,0.9-2.5,2.5-4.7,4.9l-5.6,6L51.8,95.9z
		 M48.6,96.5c-1.7-0.6-3.3-0.9-4.9-0.9c-2.4,0-3.7,0.7-3.7,2.2c0,1.2,0.9,1.8,2.7,1.8C44.5,99.6,46.5,98.5,48.6,96.5z M71.8,79.8
		c-2.2,1.1-4.2,2.7-6,4.9c-1.8,2.1-2.7,3.7-2.7,4.7c0,0.4,0.2,0.5,0.5,0.5c0.8,0,2.1-1,4-3.1C69.5,84.7,70.9,82.4,71.8,79.8z"/>
	<path id="XMLID_58_" class="st0" d="M69,94.7l-3.5,2.7c-1.8,1.3-3.1,1.9-4,1.9c-0.1,0-0.2-0.1-0.2-0.2c0-0.2,0.1-0.4,0.3-0.4
		c0.7-0.1,1.3-0.3,1.8-0.6c0.9-0.5,2.2-1.5,4.2-3l4.5-3.7c0.9-0.8,1.4-1.1,1.6-1.1c0.3,0,0.6,0.2,0.9,0.5c0.7-0.5,1.2-0.8,1.8-0.8
		c0.8,0,1.2,0.4,1.2,1.2c0,1.2-1,2.9-3,5.1c-2,2.2-3.6,3.2-4.9,3.2c-1.2,0-1.7-0.6-1.7-1.8C67.9,97,68.2,96,69,94.7z M73.1,92.6
		c-2.3,2-3.5,3.7-3.5,5c0,0.5,0.3,0.8,0.8,0.8c0.9,0,2.2-1,4-3.1c-1-0.2-1.4-0.8-1.4-1.8C72.9,93.2,73,92.9,73.1,92.6z M74.8,94.7
		c0.4-0.4,0.8-0.9,1.3-1.6c0.5-0.8,0.7-1.4,0.7-1.9c0-0.4-0.2-0.7-0.6-0.7c-0.6,0-1.1,0.4-1.7,1.1c-0.6,0.7-0.8,1.3-0.8,1.9
		C73.6,94.2,74,94.6,74.8,94.7z"/>
	<path id="XMLID_62_" class="st0" d="M81.3,94.7l-3.5,2.7c-1.8,1.3-3.1,1.9-4,1.9c-0.1,0-0.2-0.1-0.2-0.2c0-0.2,0.1-0.4,0.3-0.4
		c0.7-0.1,1.3-0.3,1.8-0.6c0.9-0.5,2.2-1.5,4.2-3l4.5-3.7c0.9-0.8,1.4-1.1,1.6-1.1c0.3,0,0.6,0.2,0.9,0.5c0.7-0.5,1.2-0.8,1.8-0.8
		c0.8,0,1.2,0.4,1.2,1.2c0,1.2-1,2.9-3,5.1c-2,2.2-3.6,3.2-4.9,3.2c-1.2,0-1.7-0.6-1.7-1.8C80.2,97,80.5,96,81.3,94.7z M85.4,92.6
		c-2.3,2-3.5,3.7-3.5,5c0,0.5,0.3,0.8,0.8,0.8c0.9,0,2.2-1,4-3.1c-1-0.2-1.4-0.8-1.4-1.8C85.3,93.2,85.3,92.9,85.4,92.6z M87.1,94.7
		c0.4-0.4,0.8-0.9,1.3-1.6c0.5-0.8,0.7-1.4,0.7-1.9c0-0.4-0.2-0.7-0.6-0.7c-0.6,0-1.1,0.4-1.7,1.1c-0.6,0.7-0.8,1.3-0.8,1.9
		C85.9,94.2,86.3,94.6,87.1,94.7z"/>
	<path id="XMLID_66_" class="st0" d="M97.4,91.3l-4.6,3.8l-3.1,2.5c-1.5,1-2.7,1.6-3.7,1.6c-0.1,0-0.2-0.1-0.2-0.2
		c0-0.2,0.1-0.3,0.3-0.4c1.5-0.4,3.5-1.6,6.1-3.7l4.9-4.1c1.1-0.9,2.9-2.8,5.4-5.5l4.8-5.5c0.8-0.9,1.3-1.4,1.6-1.4
		c0.4,0,0.6,0.2,0.6,0.6c0,0.5-0.5,1.4-1.5,2.6l-2.1,2.4l-6.8,7.9c1.7-1.2,2.9-1.8,3.7-1.8c0.9,0,1.4,0.5,1.4,1.4
		c0,1-0.9,1.9-2.7,2.6c-1.5,0.6-2.8,0.9-4.1,0.9c0.4,1,0.9,2.1,1.6,3.3c0.2,0.3,0.6,0.4,1.1,0.4c0.2,0,0.2,0.1,0.2,0.3
		c0,0.3-0.4,0.4-1.3,0.4c-0.4,0-0.8-0.1-1.1-0.3c-0.3-0.2-0.9-1.3-1.9-3.4l-1.7,2.1c-1,1.1-1.5,1.7-1.7,1.7c-0.5,0-0.7-0.3-0.7-0.9
		c0-0.3,0.9-1.6,2.7-3.7L97.4,91.3z M96.9,94.6c1.7-0.2,3.1-0.7,4.2-1.4c1.1-0.7,1.7-1.3,1.7-1.8c0-0.3-0.2-0.4-0.5-0.4
		C101,91,99.2,92.2,96.9,94.6z"/>
	<path id="XMLID_69_" class="st0" d="M108.1,98.2c0,0.3,0.3,0.5,1,0.5c0.2,0,0.2,0.1,0.2,0.3c0,0.2-0.4,0.3-1.1,0.3
		c-0.9,0-1.3-0.4-1.3-1.2c0-1,1.3-3,3.8-6l-4.7,3.8c-2.8,2.3-4.8,3.4-6,3.4c-0.1,0-0.2-0.1-0.2-0.2c0-0.2,0.1-0.3,0.3-0.4
		c0.7-0.1,1.4-0.4,2-0.7c0.7-0.4,2.3-1.6,4.7-3.5l5.2-4.4c0.2-0.1,0.5-0.1,0.9-0.1c0.4,0,0.6,0.2,0.6,0.7c0,0.5-0.9,1.8-2.8,3.9
		C109,96.6,108.1,97.8,108.1,98.2z M115.6,86.4c-0.5,0-0.8-0.3-0.8-0.8c0-0.5,0.3-0.9,0.8-1.3c0.5-0.3,1-0.5,1.5-0.5
		c0.6,0,0.9,0.3,0.9,1c0,0.5-0.3,0.9-0.9,1.2C116.6,86.2,116.1,86.4,115.6,86.4z"/>
	<path id="XMLID_72_" class="st0" d="M120.4,94.1c3.1-2.7,5.3-4,6.6-4c0.8,0,1.2,0.4,1.2,1.1c0,0.7-0.9,1.9-2.8,3.6
		c-1.8,1.8-2.8,2.8-2.8,3.2c0,0.4,0.2,0.6,0.6,0.6c0.4,0,0.6,0.1,0.6,0.3c0,0.2-0.4,0.3-1.2,0.3c-1,0-1.4-0.4-1.4-1.3
		c0-0.7,0.5-1.6,1.4-2.7c0.5-0.6,1.3-1.4,2.5-2.6c0.9-0.9,1.4-1.4,1.4-1.6c0-0.1-0.1-0.2-0.3-0.2c-0.6,0-2.1,0.9-4.2,2.6
		c-1.8,1.4-3.2,2.6-4,3.5c-1.1,1.2-1.8,1.8-2,1.8c-0.2,0-0.3-0.1-0.5-0.3c-0.1-0.2-0.2-0.4-0.2-0.6c0-0.3,0.8-1.3,2.4-3.2l2.8-3.3
		l-4.4,3.6l-3.2,2.5c-1.6,1.1-2.9,1.7-3.8,1.7c-0.1,0-0.2-0.1-0.2-0.2c0-0.2,0.2-0.3,0.5-0.4c0.4-0.1,0.9-0.3,1.5-0.5
		c0.8-0.4,2.5-1.6,5.1-3.7c2.3-1.9,4-3.3,5-4.3c0.2-0.2,0.4-0.4,0.8-0.6c0.2-0.1,0.4-0.1,0.6-0.1c0.2,0,0.4,0.1,0.6,0.2
		s0.3,0.3,0.3,0.5C123.2,90.3,122.2,91.6,120.4,94.1z"/>
	<path id="XMLID_74_" class="st0" d="M130.3,95.4c-1.6,1.3-2.6,2-3.1,2.3c-1.5,1-2.7,1.5-3.5,1.5c-0.1,0-0.2-0.1-0.2-0.2
		c0-0.2,0.1-0.3,0.4-0.4c1.2-0.3,2.7-1.1,4.5-2.5l4.8-3.8c2.3-1.7,4-2.5,5.2-2.5c1,0,1.4,0.5,1.4,1.6c0.5-0.6,0.9-0.9,1.1-0.9
		c0.3,0,0.5,0.2,0.5,0.6c0,0.4-1.9,2.9-5.7,7.7c0.1,0,0.2,0,0.4,0c0.2,0,0.3,0,0.4,0c0.1,0,0.2,0.1,0.2,0.3c0,0.2-0.2,0.3-0.7,0.4
		l-0.9,0.1c-5.5,6.9-9.6,10.3-12.2,10.3c-1.1,0-1.6-0.5-1.6-1.3c0-1.4,1.1-3.1,3.2-5.1c2.1-1.9,5.1-3.4,8.9-4.3c1-1.1,1.8-2.1,2.4-3
		c-1.2,1-1.9,1.6-2.2,1.9c-1,0.8-1.9,1.1-2.6,1.1c-0.8,0-1.2-0.5-1.2-1.5C129.7,96.9,129.9,96.2,130.3,95.4z M132.8,99.8
		c-2.5,0.6-5,1.9-7.3,3.8s-3.5,3.5-3.5,4.6c0,0.5,0.2,0.7,0.6,0.7c1,0,2.7-1.3,5.3-3.8C129.8,103.3,131.5,101.5,132.8,99.8z
		 M139.2,91.1c0-0.4-0.2-0.6-0.6-0.6c-0.7,0-2.1,1-4.2,3c-2.1,2-3.1,3.4-3.1,4.2c0,0.3,0.1,0.4,0.3,0.4c0.6,0,2-1,4.2-2.9
		C138.1,93.3,139.2,91.9,139.2,91.1z"/>
	<path id="XMLID_78_" class="st0" d="M156.2,91.7l-5.8,4.8c-2.3,1.9-4.1,2.8-5.3,2.8c-0.1,0-0.2-0.1-0.2-0.2c0-0.2,0.1-0.3,0.4-0.4
		c0.4-0.1,0.9-0.3,1.5-0.5c0.9-0.4,2.6-1.6,5.1-3.7c2.1-1.7,3.7-3.1,5.1-4.3c1.8-1.7,5.2-5.3,10.2-10.9c0.6-0.7,1.1-1.1,1.5-1.1
		c0.4,0,0.6,0.2,0.6,0.6c0,0.3-0.1,0.6-0.3,0.9l-2.9,3.2l-3.4,3.7l-6.9,8c0.8,0,1.2,0.5,1.2,1.4c0,1.8-1.3,4.5-3.9,8.1
		c-2.7,3.7-4.8,5.6-6.4,5.6c-0.5,0-0.9-0.2-1.1-0.5c-0.3-0.4-0.4-0.8-0.4-1.3c0-0.6,0.2-1.3,0.6-2.2c0.6-1.4,2.2-3.8,4.9-7.2
		L156.2,91.7z M155.4,99.3c-1.3,0-1.9-0.6-1.9-1.8c-4.8,5.9-7.1,9.6-7.1,10.9c0,0.5,0.2,0.8,0.7,0.8c1,0,2.6-1.4,4.7-4.1
		C153.4,102.8,154.7,100.9,155.4,99.3z M155.7,98.7c0.5-1.1,0.8-2,0.8-2.7c0-0.5-0.2-0.8-0.6-0.8c-0.4,0-0.7,0.3-1.1,0.9
		c-0.3,0.6-0.5,1.1-0.5,1.5c0,0.8,0.4,1.1,1.2,1.1H155.7z"/>
	<path id="XMLID_82_" class="st0" d="M164,94.7l-3.5,2.7c-1.8,1.3-3.1,1.9-4,1.9c-0.1,0-0.2-0.1-0.2-0.2c0-0.2,0.1-0.4,0.3-0.4
		c0.7-0.1,1.3-0.3,1.8-0.6c0.9-0.5,2.2-1.5,4.2-3l4.5-3.7c0.9-0.8,1.4-1.1,1.6-1.1c0.3,0,0.6,0.2,0.9,0.5c0.7-0.5,1.2-0.8,1.8-0.8
		c0.8,0,1.2,0.4,1.2,1.2c0,1.2-1,2.9-3,5.1c-2,2.2-3.6,3.2-4.9,3.2c-1.2,0-1.7-0.6-1.7-1.8C162.9,97,163.2,96,164,94.7z M168.1,92.6
		c-2.3,2-3.5,3.7-3.5,5c0,0.5,0.3,0.8,0.8,0.8c0.9,0,2.2-1,4-3.1c-1-0.2-1.4-0.8-1.4-1.8C168,93.2,168,92.9,168.1,92.6z M169.8,94.7
		c0.4-0.4,0.8-0.9,1.3-1.6c0.5-0.8,0.7-1.4,0.7-1.9c0-0.4-0.2-0.7-0.6-0.7c-0.6,0-1.1,0.4-1.7,1.1c-0.6,0.7-0.8,1.3-0.8,1.9
		C168.7,94.2,169,94.6,169.8,94.7z"/>
	<path id="XMLID_86_" class="st0" d="M178.4,91.7c-0.1-0.4-0.1-0.6-0.1-0.7c0-0.3,0.4-0.8,1.1-1.4c0.7-0.7,1.2-1,1.5-1
		c0.3,0,0.4,0.1,0.4,0.4c0,0.2-0.1,0.5-0.4,1c1.3,0,1.9,0.5,1.9,1.5c0,0.8-0.8,2.1-2.5,3.9c-1.7,1.8-2.5,2.8-2.5,3
		c0,0.2,0.1,0.3,0.3,0.3l0.6,0c0.2,0,0.2,0.1,0.2,0.3c0,0.2-0.3,0.4-1,0.4c-0.8,0-1.3-0.4-1.3-1.1c0-0.7,0.4-1.7,1.3-2.8
		c0.5-0.7,1.3-1.6,2.3-2.6c0.8-0.8,1.3-1.3,1.3-1.4c0-0.2-0.1-0.3-0.3-0.3c-0.2,0-0.5,0.1-1,0.2c-0.5,0.1-0.8,0.2-0.8,0.3
		c-5.3,5-8.9,7.5-10.7,7.5c-0.1,0-0.2-0.1-0.2-0.2c0-0.2,0.2-0.3,0.5-0.4c0.4-0.1,0.9-0.2,1.5-0.5c0.9-0.4,2.3-1.4,4.1-2.9
		C176.2,93.8,177.5,92.7,178.4,91.7z"/>
	<path id="XMLID_88_" class="st0" d="M189.8,91.7l-4.9,4c-2.9,2.4-5,3.6-6.2,3.6c-0.1,0-0.2-0.1-0.2-0.2c0-0.2,0.2-0.3,0.5-0.4
		c0.5-0.1,1-0.3,1.5-0.5c0.7-0.3,2.3-1.5,4.8-3.4c1.1-0.9,2.8-2.3,5-4.2c0.8-0.8,1.4-1.2,1.7-1.2c0.2,0,0.4,0.1,0.6,0.3
		c0.2,0.2,0.3,0.4,0.3,0.6c0,0.3-0.8,1.5-2.5,3.7c-1.7,2.2-2.5,3.5-2.5,3.9c0,0.3,0.1,0.5,0.4,0.5c0.6,0,2-1.3,4.2-4
		c2.2-2.6,3.4-4,3.8-4c0.4,0,0.6,0.2,0.6,0.6c0,0.3-0.6,1.3-1.9,3.1c-1.3,1.8-1.9,3.1-1.9,3.9c0,0.4,0.2,0.6,0.5,0.6
		c0.6,0,1.8-1.1,3.8-3.3c-0.3-0.2-0.4-0.6-0.4-1c0-0.9,0.5-1.9,1.5-3.1c1-1.3,1.9-1.9,2.7-1.9c0.3,0,0.4,0.2,0.4,0.5
		c0,1-1.1,2.9-3.3,5.5c-2.3,2.7-3.9,4-4.9,4c-1,0-1.4-0.5-1.4-1.5c0-0.7,0.3-1.6,0.8-2.6c-1.1,1.3-1.9,2.1-2.2,2.4
		c-1.1,1.1-2,1.6-2.6,1.6c-0.8,0-1.2-0.4-1.2-1.3c0-0.9,0.4-1.9,1.3-3.3L189.8,91.7z M197.8,94.4c1.8-2.1,2.8-3.5,2.8-4.1
		c0-0.2-0.1-0.2-0.2-0.2c-0.4,0-1,0.5-1.7,1.5c-0.7,1-1.1,1.8-1.1,2.3C197.6,94.2,197.7,94.3,197.8,94.4z"/>
	<path id="XMLID_91_" class="st0" d="M202.7,95.6c-3,2.4-5.1,3.6-6.3,3.6c-0.1,0-0.2-0.1-0.2-0.2c0-0.2,0.1-0.3,0.4-0.4
		c1.1-0.2,2.6-1,4.4-2.5l2.2-1.7l3.5-2.8c1.6-1.1,3-1.7,4.2-1.7c0.9,0,1.3,0.4,1.4,1.3c0.4-0.4,0.8-0.6,0.9-0.6
		c0.4,0,0.6,0.2,0.6,0.5c0,0.4-0.9,1.6-2.6,3.7c-1.7,2-2.6,3.2-2.6,3.6c0,0.2,0.2,0.4,0.6,0.4c0.4,0,0.6,0.1,0.6,0.3
		c0,0.2-0.4,0.4-1.2,0.4c-0.8,0-1.1-0.3-1.1-1c0-0.5,0.3-1.3,0.9-2.3l-2.1,1.8c-1,0.8-1.9,1.2-2.5,1.2c-1,0-1.5-0.5-1.5-1.5
		C202.4,96.9,202.5,96.3,202.7,95.6z M211.2,90.6c-0.7,0-2.1,1-4.2,3c-2.1,2-3.2,3.4-3.2,4c0,0.3,0.1,0.5,0.4,0.5c0.6,0,2-1,4.2-3
		c2.1-2,3.2-3.3,3.2-4C211.7,90.8,211.6,90.6,211.2,90.6z"/>
	<path id="XMLID_94_" class="st0" d="M219.2,91.7c-0.1-0.4-0.1-0.6-0.1-0.7c0-0.3,0.4-0.8,1.1-1.4c0.7-0.7,1.2-1,1.5-1
		c0.3,0,0.4,0.1,0.4,0.4c0,0.2-0.1,0.5-0.4,1c1.3,0,1.9,0.5,1.9,1.5c0,0.8-0.8,2.1-2.5,3.9c-1.7,1.8-2.5,2.8-2.5,3
		c0,0.2,0.1,0.3,0.3,0.3l0.6,0c0.2,0,0.2,0.1,0.2,0.3c0,0.2-0.3,0.4-1,0.4c-0.8,0-1.3-0.4-1.3-1.1c0-0.7,0.4-1.7,1.3-2.8
		c0.5-0.7,1.3-1.6,2.3-2.6c0.8-0.8,1.3-1.3,1.3-1.4c0-0.2-0.1-0.3-0.3-0.3c-0.2,0-0.5,0.1-1,0.2c-0.5,0.1-0.8,0.2-0.8,0.3
		c-5.3,5-8.9,7.5-10.7,7.5c-0.1,0-0.2-0.1-0.2-0.2c0-0.2,0.2-0.3,0.5-0.4c0.4-0.1,0.9-0.2,1.5-0.5c0.9-0.4,2.3-1.4,4.1-2.9
		C217,93.8,218.3,92.7,219.2,91.7z"/>
	<path id="XMLID_96_" class="st0" d="M226.4,95.1l-3.2,2.5c-1.6,1.1-2.8,1.6-3.7,1.6c-0.1,0-0.2-0.1-0.2-0.2c0-0.2,0.1-0.3,0.3-0.4
		c0.9-0.2,1.7-0.5,2.4-1c1.1-0.6,2.6-1.8,4.6-3.5c2-1.7,3.5-2.9,4.5-3.5c0.8-0.4,1.4-0.7,2-0.7c1,0,1.5,0.4,1.6,1.3
		c1.7-2.2,3.6-4.5,5.8-6.9c3.3-3.8,5.3-5.7,6-5.7c0.4,0,0.5,0.2,0.5,0.6c0,0.3-0.5,1-1.4,2c-1.7,1.8-4.3,4.7-7.7,8.7
		c-4.2,4.9-6.3,7.7-6.3,8.3c0,0.3,0.2,0.4,0.6,0.4c0.4,0,0.6,0.1,0.6,0.3c0,0.2-0.3,0.4-0.8,0.4c-0.9,0-1.4-0.4-1.4-1.1
		c0-0.6,0.4-1.5,1.1-2.8c-2.2,2.4-3.8,3.6-4.8,3.6c-0.9,0-1.3-0.5-1.3-1.4C225.7,97.1,225.9,96.3,226.4,95.1z M227.5,98.1
		c0.6,0,1.9-1,3.9-2.9c1.9-1.9,2.9-3.2,2.9-3.9c0-0.3-0.2-0.5-0.5-0.5c-0.8,0-2.1,0.9-3.9,2.8c-1.8,1.9-2.7,3.3-2.7,4.1
		C227.1,98,227.2,98.1,227.5,98.1z"/>
	<path id="XMLID_99_" class="st0" d="M255,88.1l-6.2,0.2c-0.3,0-0.5-0.1-0.5-0.3c0-0.1,0.3-0.3,0.8-0.3c0.8-0.1,1.9-0.2,3.3-0.3
		c1.6-0.1,2.7-0.2,3.3-0.3l2.4-2.9c1.3-1.5,2.1-2.3,2.4-2.3c0.3,0,0.5,0.2,0.5,0.6c0,0.5-1,2-3.1,4.6c1.2-0.1,2.2-0.1,3-0.1
		c0.5,0,0.8,0.1,0.8,0.3c0,0.2-0.6,0.4-1.9,0.5l-2.6,0.1l-3.8,4.8c-2.4,3.1-3.6,5-3.6,5.6c0,0.3,0.2,0.4,0.6,0.4
		c0.4,0,0.6,0.1,0.6,0.3c0,0.2-0.3,0.3-0.8,0.3c-1,0-1.5-0.4-1.5-1.2c0-0.6,0.3-1.6,1-2.8l1.5-2.5l-5.1,4c-2.1,1.7-3.7,2.5-4.9,2.5
		c-0.1,0-0.2-0.1-0.2-0.2c0-0.2,0.1-0.3,0.3-0.4c0.4-0.1,1-0.3,1.8-0.6c0.8-0.4,2.5-1.6,5.1-3.7c1.9-1.5,3.2-2.5,3.7-3
		C252.9,90.6,253.9,89.5,255,88.1z"/>
	<path id="XMLID_101_" class="st0" d="M258.3,94.7l-3.5,2.7c-1.8,1.3-3.1,1.9-4,1.9c-0.1,0-0.2-0.1-0.2-0.2c0-0.2,0.1-0.4,0.3-0.4
		c0.7-0.1,1.3-0.3,1.8-0.6c0.9-0.5,2.2-1.5,4.2-3l4.5-3.7c0.9-0.8,1.4-1.1,1.6-1.1c0.3,0,0.6,0.2,0.9,0.5c0.7-0.5,1.2-0.8,1.8-0.8
		c0.8,0,1.2,0.4,1.2,1.2c0,1.2-1,2.9-3,5.1c-2,2.2-3.6,3.2-4.9,3.2c-1.2,0-1.7-0.6-1.7-1.8C257.2,97,257.6,96,258.3,94.7z
		 M262.4,92.6c-2.3,2-3.5,3.7-3.5,5c0,0.5,0.3,0.8,0.8,0.8c0.9,0,2.2-1,4-3.1c-1-0.2-1.4-0.8-1.4-1.8
		C262.3,93.2,262.3,92.9,262.4,92.6z M264.1,94.7c0.4-0.4,0.8-0.9,1.3-1.6c0.5-0.8,0.7-1.4,0.7-1.9c0-0.4-0.2-0.7-0.6-0.7
		c-0.6,0-1.1,0.4-1.7,1.1c-0.6,0.7-0.8,1.3-0.8,1.9C263,94.2,263.3,94.6,264.1,94.7z"/>
	<path id="XMLID_105_" class="st0" d="M282.9,91.7l-4.9,4c-2.9,2.4-5,3.6-6.2,3.6c-0.1,0-0.2-0.1-0.2-0.2c0-0.2,0.2-0.3,0.5-0.4
		c0.5-0.1,1-0.3,1.5-0.5c0.7-0.3,2.3-1.5,4.8-3.4c1.1-0.9,2.8-2.3,5-4.2c0.8-0.8,1.4-1.2,1.7-1.2c0.2,0,0.4,0.1,0.6,0.3
		c0.2,0.2,0.3,0.4,0.3,0.6c0,0.3-0.8,1.5-2.5,3.7c-1.7,2.2-2.5,3.5-2.5,3.9c0,0.3,0.1,0.5,0.4,0.5c0.6,0,2-1.3,4.2-4
		c2.2-2.6,3.4-4,3.8-4c0.4,0,0.6,0.2,0.6,0.6c0,0.3-0.6,1.3-1.9,3.1c-1.3,1.8-1.9,3.1-1.9,3.9c0,0.4,0.2,0.6,0.5,0.6
		c0.6,0,1.8-1.1,3.8-3.3c-0.3-0.2-0.4-0.6-0.4-1c0-0.9,0.5-1.9,1.5-3.1c1-1.3,1.9-1.9,2.7-1.9c0.3,0,0.4,0.2,0.4,0.5
		c0,1-1.1,2.9-3.3,5.5c-2.3,2.7-3.9,4-4.9,4c-1,0-1.4-0.5-1.4-1.5c0-0.7,0.3-1.6,0.8-2.6c-1.1,1.3-1.9,2.1-2.2,2.4
		c-1.1,1.1-2,1.6-2.6,1.6c-0.8,0-1.2-0.4-1.2-1.3c0-0.9,0.4-1.9,1.3-3.3L282.9,91.7z M291,94.4c1.8-2.1,2.8-3.5,2.8-4.1
		c0-0.2-0.1-0.2-0.2-0.2c-0.4,0-1,0.5-1.7,1.5c-0.7,1-1.1,1.8-1.1,2.3C290.7,94.2,290.8,94.3,291,94.4z"/>
	<path id="XMLID_108_" class="st0" d="M297.1,94.7l-3.5,2.7c-1.8,1.3-3.1,1.9-4,1.9c-0.1,0-0.2-0.1-0.2-0.2c0-0.2,0.1-0.4,0.3-0.4
		c0.7-0.1,1.3-0.3,1.8-0.6c0.9-0.5,2.2-1.5,4.2-3l4.5-3.7c0.9-0.8,1.4-1.1,1.6-1.1c0.3,0,0.6,0.2,0.9,0.5c0.7-0.5,1.2-0.8,1.8-0.8
		c0.8,0,1.2,0.4,1.2,1.2c0,1.2-1,2.9-3,5.1c-2,2.2-3.6,3.2-4.9,3.2c-1.2,0-1.7-0.6-1.7-1.8C296,97,296.4,96,297.1,94.7z M301.3,92.6
		c-2.3,2-3.5,3.7-3.5,5c0,0.5,0.3,0.8,0.8,0.8c0.9,0,2.2-1,4-3.1c-1-0.2-1.4-0.8-1.4-1.8C301.1,93.2,301.2,92.9,301.3,92.6z
		 M302.9,94.7c0.4-0.4,0.8-0.9,1.3-1.6c0.5-0.8,0.7-1.4,0.7-1.9c0-0.4-0.2-0.7-0.6-0.7c-0.6,0-1.1,0.4-1.7,1.1
		c-0.6,0.7-0.8,1.3-0.8,1.9C301.8,94.2,302.2,94.6,302.9,94.7z"/>
	<path id="XMLID_112_" class="st0" d="M311.5,91.7c-0.1-0.4-0.1-0.6-0.1-0.7c0-0.3,0.4-0.8,1.1-1.4c0.7-0.7,1.2-1,1.5-1
		c0.3,0,0.4,0.1,0.4,0.4c0,0.2-0.1,0.5-0.4,1c1.3,0,1.9,0.5,1.9,1.5c0,0.8-0.8,2.1-2.5,3.9c-1.7,1.8-2.5,2.8-2.5,3
		c0,0.2,0.1,0.3,0.3,0.3l0.6,0c0.2,0,0.2,0.1,0.2,0.3c0,0.2-0.3,0.4-1,0.4c-0.8,0-1.3-0.4-1.3-1.1c0-0.7,0.4-1.7,1.3-2.8
		c0.5-0.7,1.3-1.6,2.3-2.6c0.8-0.8,1.3-1.3,1.3-1.4c0-0.2-0.1-0.3-0.3-0.3c-0.2,0-0.5,0.1-1,0.2c-0.5,0.1-0.8,0.2-0.8,0.3
		c-5.3,5-8.9,7.5-10.7,7.5c-0.1,0-0.2-0.1-0.2-0.2c0-0.2,0.2-0.3,0.5-0.4c0.4-0.1,0.9-0.2,1.5-0.5c0.9-0.4,2.3-1.4,4.1-2.9
		C309.4,93.8,310.6,92.7,311.5,91.7z"/>
	<path id="XMLID_114_" class="st0" d="M323.2,91.3l-4.6,3.8l-3.1,2.5c-1.5,1-2.7,1.6-3.7,1.6c-0.1,0-0.2-0.1-0.2-0.2
		c0-0.2,0.1-0.3,0.3-0.4c1.5-0.4,3.5-1.6,6.1-3.7l4.9-4.1c1.1-0.9,2.9-2.8,5.4-5.5l4.8-5.5c0.8-0.9,1.3-1.4,1.6-1.4
		c0.4,0,0.6,0.2,0.6,0.6c0,0.5-0.5,1.4-1.5,2.6l-2.1,2.4l-6.8,7.9c1.7-1.2,2.9-1.8,3.7-1.8c0.9,0,1.4,0.5,1.4,1.4
		c0,1-0.9,1.9-2.7,2.6c-1.5,0.6-2.8,0.9-4.1,0.9c0.4,1,0.9,2.1,1.6,3.3c0.2,0.3,0.6,0.4,1.1,0.4c0.2,0,0.2,0.1,0.2,0.3
		c0,0.3-0.4,0.4-1.3,0.4c-0.4,0-0.8-0.1-1.1-0.3c-0.3-0.2-0.9-1.3-1.9-3.4l-1.7,2.1c-1,1.1-1.5,1.7-1.7,1.7c-0.5,0-0.7-0.3-0.7-0.9
		c0-0.3,0.9-1.6,2.7-3.7L323.2,91.3z M322.7,94.6c1.7-0.2,3.1-0.7,4.2-1.4c1.1-0.7,1.7-1.3,1.7-1.8c0-0.3-0.2-0.4-0.5-0.4
		C326.8,91,325,92.2,322.7,94.6z"/>
	<path id="XMLID_117_" class="st0" d="M345.7,91.7l-4.9,4c-2.9,2.4-5,3.6-6.2,3.6c-0.1,0-0.2-0.1-0.2-0.2c0-0.2,0.2-0.3,0.5-0.4
		c0.5-0.1,1-0.3,1.5-0.5c0.7-0.3,2.3-1.5,4.8-3.4c1.1-0.9,2.8-2.3,5-4.2c0.8-0.8,1.4-1.2,1.7-1.2c0.2,0,0.4,0.1,0.6,0.3
		c0.2,0.2,0.3,0.4,0.3,0.6c0,0.3-0.8,1.5-2.5,3.7c-1.7,2.2-2.5,3.5-2.5,3.9c0,0.3,0.1,0.5,0.4,0.5c0.6,0,2-1.3,4.2-4
		c2.2-2.6,3.4-4,3.8-4c0.4,0,0.6,0.2,0.6,0.6c0,0.3-0.6,1.3-1.9,3.1c-1.3,1.8-1.9,3.1-1.9,3.9c0,0.4,0.2,0.6,0.5,0.6
		c0.6,0,1.8-1.1,3.8-3.3c-0.3-0.2-0.4-0.6-0.4-1c0-0.9,0.5-1.9,1.5-3.1c1-1.3,1.9-1.9,2.7-1.9c0.3,0,0.4,0.2,0.4,0.5
		c0,1-1.1,2.9-3.3,5.5c-2.3,2.7-3.9,4-4.9,4c-1,0-1.4-0.5-1.4-1.5c0-0.7,0.3-1.6,0.8-2.6c-1.1,1.3-1.9,2.1-2.2,2.4
		c-1.1,1.1-2,1.6-2.6,1.6c-0.8,0-1.2-0.4-1.2-1.3c0-0.9,0.4-1.9,1.3-3.3L345.7,91.7z M353.7,94.4c1.8-2.1,2.8-3.5,2.8-4.1
		c0-0.2-0.1-0.2-0.2-0.2c-0.4,0-1,0.5-1.7,1.5c-0.7,1-1.1,1.8-1.1,2.3C353.5,94.2,353.5,94.3,353.7,94.4z"/>
	<path id="XMLID_120_" class="st0" d="M360.4,98.2c0,0.3,0.3,0.5,1,0.5c0.1,0,0.2,0.1,0.2,0.3c0,0.2-0.4,0.3-1.1,0.3
		c-0.9,0-1.3-0.4-1.3-1.2c0-1,1.3-3,3.8-6l-4.7,3.8c-2.8,2.3-4.8,3.4-6,3.4c-0.1,0-0.2-0.1-0.2-0.2c0-0.2,0.1-0.3,0.3-0.4
		c0.7-0.1,1.4-0.4,2-0.7c0.7-0.4,2.3-1.6,4.7-3.5l5.2-4.4c0.2-0.1,0.5-0.1,0.9-0.1c0.4,0,0.6,0.2,0.6,0.7c0,0.5-0.9,1.8-2.8,3.9
		C361.3,96.6,360.4,97.8,360.4,98.2z M368,86.4c-0.5,0-0.8-0.3-0.8-0.8c0-0.5,0.3-0.9,0.8-1.3c0.5-0.3,1-0.5,1.5-0.5
		c0.6,0,0.9,0.3,0.9,1c0,0.5-0.3,0.9-0.9,1.2C369,86.2,368.5,86.4,368,86.4z"/>
	<path id="XMLID_123_" class="st0" d="M375,88.1l-6.2,0.2c-0.3,0-0.5-0.1-0.5-0.3c0-0.1,0.3-0.3,0.8-0.3c0.8-0.1,1.9-0.2,3.3-0.3
		c1.6-0.1,2.7-0.2,3.3-0.3l2.4-2.9c1.3-1.5,2.1-2.3,2.4-2.3c0.3,0,0.5,0.2,0.5,0.6c0,0.5-1,2-3.1,4.6c1.2-0.1,2.2-0.1,3-0.1
		c0.5,0,0.8,0.1,0.8,0.3c0,0.2-0.6,0.4-1.9,0.5l-2.6,0.1l-3.8,4.8c-2.4,3.1-3.6,5-3.6,5.6c0,0.3,0.2,0.4,0.6,0.4
		c0.4,0,0.6,0.1,0.6,0.3c0,0.2-0.3,0.3-0.8,0.3c-1,0-1.5-0.4-1.5-1.2c0-0.6,0.3-1.6,1-2.8l1.5-2.5l-5.1,4c-2.1,1.7-3.7,2.5-4.9,2.5
		c-0.1,0-0.2-0.1-0.2-0.2c0-0.2,0.1-0.3,0.3-0.4c0.4-0.1,1-0.3,1.8-0.6c0.8-0.4,2.5-1.6,5.1-3.7c1.9-1.5,3.2-2.5,3.7-3
		C372.9,90.6,373.9,89.5,375,88.1z"/>
	<path id="XMLID_125_" class="st0" d="M380.9,95.3c4.1-3.7,6.9-5.5,8.3-5.5c0.6,0,0.9,0.3,0.9,1c0,0.7-1,2-2.9,4s-2.9,3.1-2.9,3.4
		c0,0.3,0.3,0.5,0.9,0.5c0.2,0,0.2,0.1,0.2,0.3c0,0.2-0.3,0.3-0.8,0.3c-1,0-1.5-0.4-1.5-1.2c0-1,0.8-2.2,2.3-3.8
		c1.9-1.9,2.9-3,3-3.3c0-0.1-0.1-0.2-0.2-0.2c-0.6,0-2.2,1.1-4.8,3.3c-1.9,1.6-3.5,3-4.6,4.2c-0.5,0.5-0.8,0.8-1.1,1
		c-0.2,0-0.3-0.1-0.5-0.3c-0.2-0.2-0.2-0.4-0.2-0.6c0-0.3,0.8-1.4,2.3-3.4l2.7-3.4c-1.1,1-2.5,2.2-4.1,3.5l-3.3,2.5
		c-1.7,1.1-2.9,1.7-3.8,1.7c-0.1,0-0.2-0.1-0.2-0.2c0-0.2,0.1-0.3,0.3-0.4c0.9-0.2,1.8-0.6,2.5-1c1.3-0.8,3.3-2.4,6-4.6l3.5-2.9
		c0.7-0.6,2.8-2.9,6.1-6.8c3-3.5,4.6-5.2,4.9-5.2c0.4,0,0.6,0.3,0.6,0.8c0,0.4-1.1,1.9-3.4,4.6L380.9,95.3z"/>
	<path id="XMLID_127_" class="st0" d="M407.3,98.7l1.1,0c0.2,0,0.2,0.1,0.2,0.3c0,0.2-0.3,0.3-0.8,0.4l-1.1,0.1l-4.8,5.9
		c-2.9,3.3-4.9,4.9-6.1,4.9c-0.6,0-0.9-0.4-0.9-1.1c0-1.7,1.1-3.7,3.4-5.9c2.2-2.2,4.5-3.6,6.9-4.2l3.5-4.5l-2.8,2.5
		c-1.7,1.4-2.9,2.1-3.5,2.1c-0.7,0-1.1-0.5-1.1-1.5c0-0.9,0.4-1.9,1.2-3.1l2.1-2.6c-1.3,1.2-2.9,2.5-4.6,3.9
		c-1.4,1.1-2.4,1.9-2.9,2.2c-1.4,0.9-2.5,1.4-3.3,1.4c-0.1,0-0.2-0.1-0.2-0.2c0-0.2,0.1-0.3,0.3-0.4c1.4-0.4,3.4-1.6,5.9-3.6l3-2.5
		l1.9-1.7c1.1-0.9,1.7-1.4,1.8-1.4c0.3,0,0.6,0.1,0.8,0.3c0.3,0.2,0.4,0.4,0.4,0.7l-2.7,3.1c-1.8,2.1-2.7,3.6-2.7,4.3
		c0,0.2,0.1,0.3,0.3,0.3c0.7,0,2.4-1.3,5-3.8c1.9-1.9,3.6-3.5,4.9-5c0.3-0.3,0.5-0.4,0.6-0.4c0.2,0,0.4,0.1,0.7,0.2
		c0.2,0.2,0.4,0.3,0.4,0.5c0,0.1-0.1,0.3-0.2,0.4C412.1,92.4,409.8,95.3,407.3,98.7z M404.7,99.7c-2.3,0.7-4.4,2.1-6.2,4.1
		c-1.9,2-2.8,3.6-2.8,4.8c0,0.4,0.1,0.6,0.4,0.6C397.2,109.2,400,106,404.7,99.7z"/>
	<path id="XMLID_130_" class="st0" d="M415.9,94.7l-3.5,2.7c-1.8,1.3-3.1,1.9-4,1.9c-0.1,0-0.2-0.1-0.2-0.2c0-0.2,0.1-0.4,0.3-0.4
		c0.7-0.1,1.3-0.3,1.8-0.6c0.9-0.5,2.2-1.5,4.2-3l4.5-3.7c0.9-0.8,1.4-1.1,1.6-1.1c0.3,0,0.6,0.2,0.9,0.5c0.7-0.5,1.2-0.8,1.8-0.8
		c0.8,0,1.2,0.4,1.2,1.2c0,1.2-1,2.9-3,5.1c-2,2.2-3.6,3.2-4.9,3.2c-1.2,0-1.7-0.6-1.7-1.8C414.8,97,415.1,96,415.9,94.7z M420,92.6
		c-2.3,2-3.5,3.7-3.5,5c0,0.5,0.3,0.8,0.8,0.8c0.9,0,2.2-1,4-3.1c-1-0.2-1.4-0.8-1.4-1.8C419.9,93.2,419.9,92.9,420,92.6z
		 M421.7,94.7c0.4-0.4,0.8-0.9,1.3-1.6c0.5-0.8,0.7-1.4,0.7-1.9c0-0.4-0.2-0.7-0.6-0.7c-0.6,0-1.1,0.4-1.7,1.1
		c-0.6,0.7-0.8,1.3-0.8,1.9C420.5,94.2,420.9,94.6,421.7,94.7z"/>
	<path id="XMLID_134_" class="st0" d="M433.3,96c-2,1.9-3.4,2.9-4.4,2.9c-0.7,0-1.1-0.4-1.1-1.2c0-0.9,0.4-2,1.2-3.1l2.2-2.6
		l-4.9,4.1c-2.8,2.1-4.7,3.1-5.8,3.1c-0.1,0-0.2-0.1-0.2-0.2c0-0.2,0.2-0.3,0.5-0.4c0.4-0.1,0.9-0.3,1.5-0.5c0.7-0.3,2.1-1.3,4.2-3
		c1-0.8,2.4-2,4.3-3.6c0.3-0.3,0.8-0.8,1.5-1.4c0.3-0.2,0.5-0.3,0.8-0.3c0.7,0,1,0.2,1,0.6c0,0.4-0.8,1.5-2.4,3.3
		c-1.6,1.8-2.4,3-2.4,3.8c0,0.2,0.1,0.3,0.3,0.3c0.7,0,2.2-1.3,4.6-3.9c2.4-2.6,3.7-3.9,4-3.9c0.2,0,0.3,0.1,0.5,0.2
		c0.2,0.2,0.2,0.3,0.2,0.5c0,0.3-0.9,1.4-2.6,3.5c-1.8,2-2.6,3.3-2.6,3.9c0,0.3,0.2,0.4,0.6,0.4c0.4,0,0.6,0.1,0.6,0.3
		c0,0.2-0.3,0.3-0.9,0.3c-1,0-1.4-0.4-1.4-1.1C432.6,97.7,432.8,96.9,433.3,96z"/>
	<path id="XMLID_136_" class="st0" d="M448.1,99.4c-0.5,0-0.8-0.3-0.8-0.8c0-0.5,0.2-0.9,0.7-1.4s0.9-0.7,1.4-0.7
		c0.6,0,0.9,0.3,0.9,0.8c0,0.4-0.2,0.9-0.7,1.4C449,99.2,448.5,99.4,448.1,99.4z"/>
	<path id="XMLID_138_" class="st0" d="M454.5,99.4c-0.5,0-0.8-0.3-0.8-0.8c0-0.5,0.2-0.9,0.7-1.4s0.9-0.7,1.4-0.7
		c0.6,0,0.9,0.3,0.9,0.8c0,0.4-0.2,0.9-0.7,1.4C455.4,99.2,455,99.4,454.5,99.4z"/>
	<path id="XMLID_140_" class="st0" d="M461,99.4c-0.5,0-0.8-0.3-0.8-0.8c0-0.5,0.2-0.9,0.7-1.4s0.9-0.7,1.4-0.7
		c0.6,0,0.9,0.3,0.9,0.8c0,0.4-0.2,0.9-0.7,1.4C461.9,99.2,461.5,99.4,461,99.4z"/>
	<path id="XMLID_142_" class="st0" d="M467.5,99.4c-0.5,0-0.8-0.3-0.8-0.8c0-0.5,0.2-0.9,0.7-1.4s0.9-0.7,1.4-0.7
		c0.6,0,0.9,0.3,0.9,0.8c0,0.4-0.2,0.9-0.7,1.4C468.4,99.2,467.9,99.4,467.5,99.4z"/>
</g>
</svg>
